<svg xmlns="http://www.w3.org/2000/svg" viewBox="0 0 24 24"><rect width="24" height="24" rx="5" fill="#1EBAFC"/><g transform="translate(3.36 3.36) scale(0.72)" fill="none" stroke="#FFFFFF" stroke-width="2.25" stroke-linecap="round" stroke-linejoin="round"><path d="M12 5c.67 0 1.35.09 2 .26 1.78-2 5.03-2.84 6.42-2.26 1.4.58-.42 7-.42 7 .57 1.07 1 2.24 1 3.44C21 17.9 16.97 21 12 21s-9-3.1-9-7.56c0-1.2.43-2.37 1-3.44 0 0-1.82-6.42-.42-7 1.39-.58 4.64.25 6.42 2.26.65-.17 1.33-.26 2-.26Z"/><path d="M8 14v.5"/><path d="M16 14v.5"/><path d="M11.25 16.25h1.5L12 17l-.75-.75Z"/></g></svg>
